<svg
            width="185"
            height="134"
            viewBox="0 0 185 134"
            fill="none"
            xmlns="http://www.w3.org/2000/svg"
          >
            <rect x="6.97144" width="178.029" height="124.615" fill="#C4C4C4" />
            <rect
              x="0.771423"
              y="10.3846"
              width="170.057"
              height="123.231"
              fill="#C4C4C4"
            />
            <path
              d="M56.368 79C56 79 55.736 78.848 55.576 78.544C55.416 78.24 55.4 77.944 55.528 77.656L62.584 60.904C62.76 60.472 63.064 60.256 63.496 60.256C63.912 60.256 64.208 60.472 64.384 60.904L71.464 77.68C71.608 77.984 71.584 78.28 71.392 78.568C71.216 78.856 70.96 79 70.624 79C70.192 79 69.896 78.808 69.736 78.424L68.152 74.536H58.84L57.232 78.424C57.152 78.616 57.032 78.76 56.872 78.856C56.728 78.952 56.56 79 56.368 79ZM59.512 72.928H67.48L63.496 63.304L59.512 72.928ZM79.0622 79.12C77.7982 79.12 76.6702 78.832 75.6782 78.256C74.7022 77.664 73.9262 76.864 73.3502 75.856C72.7902 74.848 72.5102 73.712 72.5102 72.448C72.5102 71.168 72.7822 70.024 73.3262 69.016C73.8702 68.008 74.6142 67.216 75.5582 66.64C76.5022 66.048 77.5902 65.752 78.8222 65.752C80.8222 65.752 82.4462 66.52 83.6942 68.056C83.8703 68.248 83.9343 68.456 83.8863 68.68C83.8382 68.888 83.7022 69.072 83.4782 69.232C83.3022 69.36 83.1023 69.408 82.8783 69.376C82.6702 69.328 82.4862 69.208 82.3263 69.016C81.3983 67.96 80.2302 67.432 78.8222 67.432C77.9262 67.432 77.1342 67.648 76.4462 68.08C75.7742 68.512 75.2462 69.104 74.8622 69.856C74.4942 70.608 74.3102 71.472 74.3102 72.448C74.3102 73.408 74.5102 74.264 74.9102 75.016C75.3102 75.768 75.8702 76.36 76.5902 76.792C77.3102 77.224 78.1342 77.44 79.0622 77.44C80.3423 77.44 81.3743 77.096 82.1583 76.408C82.3503 76.248 82.5503 76.16 82.7583 76.144C82.9663 76.128 83.1583 76.192 83.3342 76.336C83.5263 76.512 83.6303 76.712 83.6463 76.936C83.6782 77.16 83.6062 77.352 83.4303 77.512C82.2622 78.584 80.8062 79.12 79.0622 79.12ZM92.2791 79C91.4311 79 90.6711 78.8 89.9991 78.4C89.3431 78 88.8231 77.456 88.4391 76.768C88.0551 76.064 87.8631 75.264 87.8631 74.368V67.96H86.3031C86.0631 67.96 85.8631 67.888 85.7031 67.744C85.5431 67.584 85.4631 67.392 85.4631 67.168C85.4631 66.928 85.5431 66.736 85.7031 66.592C85.8631 66.432 86.0631 66.352 86.3031 66.352H87.8631V62.632C87.8631 62.36 87.9431 62.136 88.1031 61.96C88.2791 61.784 88.5031 61.696 88.7751 61.696C89.0471 61.696 89.2711 61.784 89.4471 61.96C89.6231 62.136 89.7111 62.36 89.7111 62.632V66.352H92.4231C92.6631 66.352 92.8631 66.432 93.0231 66.592C93.1831 66.736 93.2631 66.928 93.2631 67.168C93.2631 67.392 93.1831 67.584 93.0231 67.744C92.8631 67.888 92.6631 67.96 92.4231 67.96H89.7111V74.368C89.7111 75.184 89.9511 75.856 90.4311 76.384C90.9111 76.896 91.5271 77.152 92.2791 77.152H92.9271C93.1831 77.152 93.3911 77.24 93.5511 77.416C93.7111 77.592 93.7911 77.816 93.7911 78.088C93.7911 78.36 93.6951 78.584 93.5031 78.76C93.3111 78.92 93.0711 79 92.7831 79H92.2791ZM97.7594 79C97.4714 79 97.2394 78.92 97.0634 78.76C96.9034 78.584 96.8234 78.352 96.8234 78.064V66.808C96.8234 66.52 96.9034 66.296 97.0634 66.136C97.2394 65.96 97.4714 65.872 97.7594 65.872C98.0314 65.872 98.2474 65.96 98.4074 66.136C98.5834 66.296 98.6714 66.52 98.6714 66.808V78.064C98.6714 78.352 98.5834 78.584 98.4074 78.76C98.2474 78.92 98.0314 79 97.7594 79ZM97.7354 63.376C97.3834 63.376 97.0794 63.248 96.8234 62.992C96.5674 62.736 96.4394 62.424 96.4394 62.056C96.4394 61.656 96.5674 61.344 96.8234 61.12C97.0954 60.88 97.4074 60.76 97.7594 60.76C98.0954 60.76 98.3914 60.88 98.6474 61.12C98.9194 61.344 99.0554 61.656 99.0554 62.056C99.0554 62.424 98.9274 62.736 98.6714 62.992C98.4154 63.248 98.1034 63.376 97.7354 63.376ZM108.993 79.12C107.713 79.12 106.569 78.832 105.561 78.256C104.553 77.68 103.761 76.888 103.185 75.88C102.609 74.872 102.321 73.728 102.321 72.448C102.321 71.152 102.609 70 103.185 68.992C103.761 67.984 104.553 67.192 105.561 66.616C106.569 66.04 107.713 65.752 108.993 65.752C110.273 65.752 111.409 66.04 112.401 66.616C113.409 67.192 114.201 67.984 114.777 68.992C115.353 70 115.649 71.152 115.665 72.448C115.665 73.728 115.369 74.872 114.777 75.88C114.201 76.888 113.409 77.68 112.401 78.256C111.409 78.832 110.273 79.12 108.993 79.12ZM108.993 77.44C109.921 77.44 110.753 77.224 111.489 76.792C112.225 76.36 112.801 75.768 113.217 75.016C113.633 74.264 113.841 73.408 113.841 72.448C113.841 71.488 113.633 70.632 113.217 69.88C112.801 69.112 112.225 68.512 111.489 68.08C110.753 67.648 109.921 67.432 108.993 67.432C108.065 67.432 107.233 67.648 106.497 68.08C105.761 68.512 105.177 69.112 104.745 69.88C104.329 70.632 104.121 71.488 104.121 72.448C104.121 73.408 104.329 74.264 104.745 75.016C105.177 75.768 105.761 76.36 106.497 76.792C107.233 77.224 108.065 77.44 108.993 77.44ZM119.835 79C119.547 79 119.315 78.92 119.139 78.76C118.979 78.584 118.899 78.36 118.899 78.088V66.808C118.899 66.52 118.979 66.296 119.139 66.136C119.315 65.96 119.547 65.872 119.835 65.872C120.107 65.872 120.323 65.96 120.483 66.136C120.659 66.296 120.747 66.52 120.747 66.808V67.624C121.259 67.032 121.891 66.568 122.643 66.232C123.411 65.896 124.235 65.728 125.115 65.728C126.251 65.728 127.267 65.968 128.163 66.448C129.059 66.912 129.763 67.6 130.275 68.512C130.803 69.424 131.067 70.536 131.067 71.848V78.088C131.067 78.344 130.979 78.56 130.803 78.736C130.627 78.912 130.411 79 130.155 79C129.883 79 129.659 78.912 129.483 78.736C129.307 78.56 129.219 78.344 129.219 78.088V71.848C129.219 70.36 128.803 69.264 127.971 68.56C127.155 67.84 126.139 67.48 124.923 67.48C124.139 67.48 123.427 67.632 122.787 67.936C122.163 68.24 121.667 68.656 121.299 69.184C120.931 69.712 120.747 70.312 120.747 70.984V78.088C120.747 78.36 120.659 78.584 120.483 78.76C120.323 78.92 120.107 79 119.835 79Z"
              fill="black"
            />
          </svg>