 <svg
            width="179"
            height="125"
            viewBox="0 0 179 125"
            fill="none"
            xmlns="http://www.w3.org/2000/svg"
          >
            <rect
              x="0.200012"
              width="178.029"
              height="124.615"
              fill="#C4C4C4"
            />
            <path
              d="M55.336 70C55.064 70 54.84 69.912 54.664 69.736C54.488 69.56 54.4 69.336 54.4 69.064V52.192C54.4 51.92 54.488 51.696 54.664 51.52C54.84 51.344 55.064 51.256 55.336 51.256C55.624 51.256 55.864 51.368 56.056 51.592L67.528 66.664V52.192C67.528 51.92 67.616 51.696 67.792 51.52C67.968 51.344 68.192 51.256 68.464 51.256C68.72 51.256 68.936 51.344 69.112 51.52C69.304 51.696 69.4 51.92 69.4 52.192V69.064C69.4 69.336 69.304 69.56 69.112 69.736C68.936 69.912 68.72 70 68.464 70C68.16 70 67.928 69.896 67.768 69.688L56.272 54.616V69.064C56.272 69.336 56.176 69.56 55.984 69.736C55.808 69.912 55.592 70 55.336 70ZM79.5567 70.12C78.2607 70.12 77.1087 69.84 76.1007 69.28C75.1087 68.704 74.3247 67.912 73.7487 66.904C73.1887 65.896 72.9087 64.744 72.9087 63.448C72.9087 62.136 73.1727 60.984 73.7007 59.992C74.2447 58.984 74.9887 58.192 75.9327 57.616C76.8767 57.04 77.9647 56.752 79.1967 56.752C80.4127 56.752 81.4687 57.032 82.3647 57.592C83.2767 58.136 83.9807 58.896 84.4767 59.872C84.9727 60.848 85.2207 61.96 85.2207 63.208C85.2207 63.464 85.1407 63.672 84.9807 63.832C84.8207 63.976 84.6127 64.048 84.3567 64.048H74.6607C74.7567 64.912 75.0207 65.68 75.4527 66.352C75.8847 67.008 76.4527 67.528 77.1567 67.912C77.8607 68.28 78.6607 68.464 79.5567 68.464C80.1327 68.464 80.7087 68.368 81.2847 68.176C81.8767 67.968 82.3487 67.712 82.7007 67.408C82.8767 67.264 83.0767 67.192 83.3007 67.192C83.5247 67.176 83.7167 67.232 83.8767 67.36C84.0847 67.552 84.1887 67.76 84.1887 67.984C84.2047 68.208 84.1167 68.4 83.9247 68.56C83.3967 69.008 82.7247 69.384 81.9087 69.688C81.0927 69.976 80.3087 70.12 79.5567 70.12ZM79.1967 58.408C77.9647 58.408 76.9487 58.792 76.1487 59.56C75.3487 60.312 74.8687 61.296 74.7087 62.512H83.4927C83.3647 61.296 82.9167 60.312 82.1487 59.56C81.3967 58.792 80.4127 58.408 79.1967 58.408ZM93.4701 70.12C92.1741 70.12 91.0221 69.84 90.0141 69.28C89.0221 68.704 88.2381 67.912 87.6621 66.904C87.1021 65.896 86.8221 64.744 86.8221 63.448C86.8221 62.136 87.0861 60.984 87.6141 59.992C88.1581 58.984 88.9021 58.192 89.8461 57.616C90.7901 57.04 91.8781 56.752 93.1101 56.752C94.3261 56.752 95.3821 57.032 96.2781 57.592C97.1901 58.136 97.8941 58.896 98.3901 59.872C98.8861 60.848 99.1341 61.96 99.1341 63.208C99.1341 63.464 99.0541 63.672 98.8941 63.832C98.7341 63.976 98.5261 64.048 98.2701 64.048H88.5741C88.6701 64.912 88.9341 65.68 89.3661 66.352C89.7981 67.008 90.3661 67.528 91.0701 67.912C91.7741 68.28 92.5741 68.464 93.4701 68.464C94.0461 68.464 94.6221 68.368 95.1981 68.176C95.7901 67.968 96.2621 67.712 96.6141 67.408C96.7901 67.264 96.9901 67.192 97.2141 67.192C97.4381 67.176 97.6301 67.232 97.7901 67.36C97.9981 67.552 98.1021 67.76 98.1021 67.984C98.1181 68.208 98.0301 68.4 97.8381 68.56C97.3101 69.008 96.6381 69.384 95.8221 69.688C95.0061 69.976 94.2221 70.12 93.4701 70.12ZM93.1101 58.408C91.8781 58.408 90.8621 58.792 90.0621 59.56C89.2621 60.312 88.7821 61.296 88.6221 62.512H97.4061C97.2781 61.296 96.8301 60.312 96.0621 59.56C95.3101 58.792 94.3261 58.408 93.1101 58.408ZM107.408 70.12C106.144 70.12 105.008 69.832 104 69.256C102.992 68.664 102.192 67.864 101.6 66.856C101.024 65.848 100.736 64.704 100.736 63.424C100.736 62.16 101.016 61.024 101.576 60.016C102.152 59.008 102.928 58.216 103.904 57.64C104.88 57.048 105.984 56.752 107.216 56.752C108.288 56.752 109.256 56.984 110.12 57.448C110.984 57.896 111.68 58.496 112.208 59.248V52.192C112.208 51.904 112.296 51.68 112.472 51.52C112.648 51.344 112.872 51.256 113.144 51.256C113.416 51.256 113.64 51.344 113.816 51.52C113.992 51.68 114.08 51.904 114.08 52.192V63.52C114.048 64.768 113.736 65.896 113.144 66.904C112.568 67.896 111.776 68.68 110.768 69.256C109.776 69.832 108.656 70.12 107.408 70.12ZM107.408 68.44C108.336 68.44 109.16 68.224 109.88 67.792C110.616 67.344 111.192 66.744 111.608 65.992C112.04 65.24 112.256 64.384 112.256 63.424C112.256 62.48 112.04 61.632 111.608 60.88C111.192 60.112 110.616 59.512 109.88 59.08C109.16 58.648 108.336 58.432 107.408 58.432C106.496 58.432 105.672 58.648 104.936 59.08C104.2 59.512 103.616 60.112 103.184 60.88C102.752 61.632 102.536 62.48 102.536 63.424C102.536 64.384 102.752 65.24 103.184 65.992C103.616 66.744 104.2 67.344 104.936 67.792C105.672 68.224 106.496 68.44 107.408 68.44Z"
              fill="black"
            />
          </svg>