<svg
            width="189"
            height="135"
            viewBox="0 0 189 135"
            fill="none"
            xmlns="http://www.w3.org/2000/svg"
          >
            <rect width="170.057" height="123.231" fill="#C4C4C4" />
            <rect
              x="10.6286"
              y="10.3846"
              width="178.029"
              height="124.615"
              fill="#C4C4C4"
            />
            <path
              d="M43.336 79C43.064 79 42.84 78.912 42.664 78.736C42.488 78.56 42.4 78.336 42.4 78.064V61.192C42.4 60.92 42.488 60.696 42.664 60.52C42.84 60.344 43.064 60.256 43.336 60.256H48.136C49.32 60.256 50.368 60.52 51.28 61.048C52.192 61.56 52.904 62.272 53.416 63.184C53.928 64.096 54.184 65.152 54.184 66.352C54.184 67.52 53.928 68.56 53.416 69.472C52.904 70.368 52.192 71.08 51.28 71.608C50.368 72.12 49.32 72.376 48.136 72.376H44.272V78.064C44.272 78.336 44.184 78.56 44.008 78.736C43.832 78.912 43.608 79 43.336 79ZM44.272 70.576H48.136C48.952 70.576 49.68 70.4 50.32 70.048C50.96 69.68 51.456 69.176 51.808 68.536C52.176 67.896 52.36 67.168 52.36 66.352C52.36 65.504 52.176 64.76 51.808 64.12C51.456 63.48 50.96 62.976 50.32 62.608C49.68 62.24 48.952 62.056 48.136 62.056H44.272V70.576ZM61.8106 79.12C60.5786 79.12 59.4746 78.832 58.4986 78.256C57.5226 77.664 56.7466 76.864 56.1706 75.856C55.6106 74.848 55.3306 73.712 55.3306 72.448C55.3306 71.168 55.6186 70.024 56.1946 69.016C56.7866 68.008 57.5866 67.216 58.5946 66.64C59.6026 66.048 60.7386 65.752 62.0026 65.752C63.2666 65.752 64.3946 66.048 65.3866 66.64C66.3946 67.216 67.1866 68.008 67.7626 69.016C68.3546 70.024 68.6586 71.168 68.6746 72.448V78.088C68.6746 78.36 68.5866 78.584 68.4106 78.76C68.2346 78.92 68.0106 79 67.7386 79C67.4666 79 67.2426 78.92 67.0666 78.76C66.8906 78.584 66.8026 78.36 66.8026 78.088V76.624C66.2586 77.392 65.5546 78 64.6906 78.448C63.8266 78.896 62.8666 79.12 61.8106 79.12ZM62.0026 77.44C62.9306 77.44 63.7546 77.224 64.4746 76.792C65.2106 76.36 65.7866 75.768 66.2026 75.016C66.6346 74.248 66.8506 73.392 66.8506 72.448C66.8506 71.488 66.6346 70.632 66.2026 69.88C65.7866 69.128 65.2106 68.536 64.4746 68.104C63.7546 67.656 62.9306 67.432 62.0026 67.432C61.0906 67.432 60.2666 67.656 59.5306 68.104C58.7946 68.536 58.2106 69.128 57.7786 69.88C57.3466 70.632 57.1306 71.488 57.1306 72.448C57.1306 73.392 57.3466 74.248 57.7786 75.016C58.2106 75.768 58.7946 76.36 59.5306 76.792C60.2666 77.224 61.0906 77.44 62.0026 77.44ZM76.4928 79.12C75.5488 79.12 74.6128 78.96 73.6848 78.64C72.7568 78.32 72.0048 77.84 71.4288 77.2C71.2528 77.008 71.1808 76.792 71.2128 76.552C71.2448 76.312 71.3648 76.104 71.5728 75.928C71.7968 75.768 72.0288 75.704 72.2688 75.736C72.5088 75.768 72.7088 75.872 72.8688 76.048C73.2528 76.496 73.7568 76.84 74.3808 77.08C75.0208 77.32 75.7248 77.44 76.4928 77.44C77.6768 77.44 78.5328 77.24 79.0608 76.84C79.5888 76.424 79.8608 75.928 79.8768 75.352C79.8768 74.776 79.6048 74.304 79.0608 73.936C78.5168 73.552 77.6208 73.256 76.3728 73.048C74.7568 72.792 73.5728 72.344 72.8208 71.704C72.0688 71.064 71.6928 70.304 71.6928 69.424C71.6928 68.608 71.9088 67.928 72.3408 67.384C72.7728 66.84 73.3488 66.432 74.0688 66.16C74.7888 65.888 75.5808 65.752 76.4448 65.752C77.5168 65.752 78.4368 65.936 79.2048 66.304C79.9888 66.672 80.6208 67.168 81.1008 67.792C81.2608 68 81.3248 68.216 81.2928 68.44C81.2608 68.664 81.1328 68.848 80.9088 68.992C80.7168 69.104 80.4928 69.144 80.2368 69.112C79.9968 69.064 79.7888 68.944 79.6128 68.752C78.8288 67.856 77.7568 67.408 76.3968 67.408C75.5168 67.408 74.8128 67.592 74.2848 67.96C73.7568 68.312 73.4928 68.76 73.4928 69.304C73.4928 69.848 73.7248 70.296 74.1888 70.648C74.6688 71 75.5648 71.288 76.8768 71.512C78.0768 71.704 79.0208 71.992 79.7088 72.376C80.4128 72.744 80.9088 73.184 81.1968 73.696C81.5008 74.192 81.6528 74.736 81.6528 75.328C81.6528 76.08 81.4288 76.744 80.9808 77.32C80.5488 77.88 79.9408 78.32 79.1568 78.64C78.3888 78.96 77.5008 79.12 76.4928 79.12ZM89.0702 79.12C88.1262 79.12 87.1902 78.96 86.2622 78.64C85.3342 78.32 84.5822 77.84 84.0062 77.2C83.8302 77.008 83.7582 76.792 83.7902 76.552C83.8222 76.312 83.9422 76.104 84.1502 75.928C84.3742 75.768 84.6062 75.704 84.8462 75.736C85.0862 75.768 85.2862 75.872 85.4462 76.048C85.8302 76.496 86.3342 76.84 86.9582 77.08C87.5982 77.32 88.3022 77.44 89.0702 77.44C90.2542 77.44 91.1102 77.24 91.6382 76.84C92.1662 76.424 92.4382 75.928 92.4542 75.352C92.4542 74.776 92.1822 74.304 91.6382 73.936C91.0942 73.552 90.1982 73.256 88.9502 73.048C87.3342 72.792 86.1502 72.344 85.3982 71.704C84.6462 71.064 84.2702 70.304 84.2702 69.424C84.2702 68.608 84.4862 67.928 84.9182 67.384C85.3502 66.84 85.9262 66.432 86.6462 66.16C87.3662 65.888 88.1582 65.752 89.0222 65.752C90.0942 65.752 91.0142 65.936 91.7822 66.304C92.5662 66.672 93.1982 67.168 93.6782 67.792C93.8382 68 93.9022 68.216 93.8702 68.44C93.8382 68.664 93.7102 68.848 93.4862 68.992C93.2942 69.104 93.0702 69.144 92.8142 69.112C92.5742 69.064 92.3662 68.944 92.1902 68.752C91.4062 67.856 90.3342 67.408 88.9742 67.408C88.0942 67.408 87.3902 67.592 86.8622 67.96C86.3342 68.312 86.0702 68.76 86.0702 69.304C86.0702 69.848 86.3022 70.296 86.7662 70.648C87.2462 71 88.1422 71.288 89.4542 71.512C90.6542 71.704 91.5982 71.992 92.2862 72.376C92.9902 72.744 93.4862 73.184 93.7742 73.696C94.0782 74.192 94.2302 74.736 94.2302 75.328C94.2302 76.08 94.0062 76.744 93.5582 77.32C93.1262 77.88 92.5182 78.32 91.7342 78.64C90.9662 78.96 90.0782 79.12 89.0702 79.12ZM98.3838 79C98.0958 79 97.8638 78.92 97.6878 78.76C97.5278 78.584 97.4478 78.352 97.4478 78.064V66.808C97.4478 66.52 97.5278 66.296 97.6878 66.136C97.8638 65.96 98.0958 65.872 98.3838 65.872C98.6558 65.872 98.8718 65.96 99.0318 66.136C99.2078 66.296 99.2958 66.52 99.2958 66.808V78.064C99.2958 78.352 99.2078 78.584 99.0318 78.76C98.8718 78.92 98.6558 79 98.3838 79ZM98.3598 63.376C98.0078 63.376 97.7038 63.248 97.4478 62.992C97.1918 62.736 97.0638 62.424 97.0638 62.056C97.0638 61.656 97.1918 61.344 97.4478 61.12C97.7198 60.88 98.0318 60.76 98.3838 60.76C98.7198 60.76 99.0158 60.88 99.2718 61.12C99.5438 61.344 99.6798 61.656 99.6798 62.056C99.6798 62.424 99.5518 62.736 99.2958 62.992C99.0398 63.248 98.7278 63.376 98.3598 63.376ZM109.617 79.12C108.337 79.12 107.193 78.832 106.185 78.256C105.177 77.68 104.385 76.888 103.809 75.88C103.233 74.872 102.945 73.728 102.945 72.448C102.945 71.152 103.233 70 103.809 68.992C104.385 67.984 105.177 67.192 106.185 66.616C107.193 66.04 108.337 65.752 109.617 65.752C110.897 65.752 112.033 66.04 113.025 66.616C114.033 67.192 114.825 67.984 115.401 68.992C115.977 70 116.273 71.152 116.289 72.448C116.289 73.728 115.993 74.872 115.401 75.88C114.825 76.888 114.033 77.68 113.025 78.256C112.033 78.832 110.897 79.12 109.617 79.12ZM109.617 77.44C110.545 77.44 111.377 77.224 112.113 76.792C112.849 76.36 113.425 75.768 113.841 75.016C114.257 74.264 114.465 73.408 114.465 72.448C114.465 71.488 114.257 70.632 113.841 69.88C113.425 69.112 112.849 68.512 112.113 68.08C111.377 67.648 110.545 67.432 109.617 67.432C108.689 67.432 107.857 67.648 107.121 68.08C106.385 68.512 105.801 69.112 105.369 69.88C104.953 70.632 104.745 71.488 104.745 72.448C104.745 73.408 104.953 74.264 105.369 75.016C105.801 75.768 106.385 76.36 107.121 76.792C107.857 77.224 108.689 77.44 109.617 77.44ZM120.459 79C120.171 79 119.939 78.92 119.763 78.76C119.603 78.584 119.523 78.36 119.523 78.088V66.808C119.523 66.52 119.603 66.296 119.763 66.136C119.939 65.96 120.171 65.872 120.459 65.872C120.731 65.872 120.947 65.96 121.107 66.136C121.283 66.296 121.371 66.52 121.371 66.808V67.624C121.883 67.032 122.515 66.568 123.267 66.232C124.035 65.896 124.859 65.728 125.739 65.728C126.875 65.728 127.891 65.968 128.787 66.448C129.683 66.912 130.387 67.6 130.899 68.512C131.427 69.424 131.691 70.536 131.691 71.848V78.088C131.691 78.344 131.603 78.56 131.427 78.736C131.251 78.912 131.035 79 130.779 79C130.507 79 130.283 78.912 130.107 78.736C129.931 78.56 129.843 78.344 129.843 78.088V71.848C129.843 70.36 129.427 69.264 128.595 68.56C127.779 67.84 126.763 67.48 125.547 67.48C124.763 67.48 124.051 67.632 123.411 67.936C122.787 68.24 122.291 68.656 121.923 69.184C121.555 69.712 121.371 70.312 121.371 70.984V78.088C121.371 78.36 121.283 78.584 121.107 78.76C120.947 78.92 120.731 79 120.459 79Z"
              fill="black"
            />
          </svg>